<?xml version="1.0" standalone="no"?><!DOCTYPE svg PUBLIC "-//W3C//DTD SVG 1.1//EN" "http://www.w3.org/Graphics/SVG/1.1/DTD/svg11.dtd"><svg t="1572346496429" class="icon" viewBox="0 0 1024 1024" version="1.1" xmlns="http://www.w3.org/2000/svg" p-id="22909" width="48" height="48" xmlns:xlink="http://www.w3.org/1999/xlink"><defs><style type="text/css"></style></defs><path d="M384 768a64 64 0 1 0 0.032 128.032A64 64 0 0 0 384 768m320 0a64 64 0 1 0 0.032 128.032A64 64 0 0 0 704 768M312.672 512l-51.456-192h560.96L770.72 512H312.672z m583.36-224a32 32 0 0 0-32-32H244.064l-34.24-128H96v64h64.672L306.4 736H800v-64H355.52l-25.664-96H819.84L832 530.624l64-238.88-0.768-0.192c0.192-1.216 0.768-2.272 0.768-3.552z" p-id="22910" fill="#515151"></path></svg>