<?xml version="1.0" standalone="no"?><!DOCTYPE svg PUBLIC "-//W3C//DTD SVG 1.1//EN" "http://www.w3.org/Graphics/SVG/1.1/DTD/svg11.dtd"><svg t="1575887012463" class="icon" viewBox="0 0 1024 1024" version="1.1" xmlns="http://www.w3.org/2000/svg" p-id="2110" xmlns:xlink="http://www.w3.org/1999/xlink" width="32" height="32"><defs><style type="text/css"></style></defs><path d="M918.749867 213.4528l-204.8 0-17.066667-85.333333c-6.929067-11.229867-9.966933-18.824533-34.133333-17.066667l-256 0c-14.455467 0-27.204267 0.494933-34.133333 17.066667l-17.066667 85.333333-204.8 0c-3.566933 0-17.066667 2.628267-17.066667 17.066667 0 14.421333 14.404267 17.066667 17.066667 17.066667l68.266667 0 34.133333 648.533333c0.750933 13.806933 20.2752 17.066667 34.133333 17.066667l494.933333 0c13.858133 0 16.298667-37.393067 17.066667-51.2l51.2-614.4 68.266667 0c3.6864 0 17.066667-2.645333 17.066667-17.066667C935.816533 216.098133 926.737067 213.4528 918.749867 213.4528zM406.749867 145.186133l256 0 17.066667 68.266667-290.133333 0L406.749867 145.186133zM765.149867 879.069867l-477.866667 0-34.133333-631.466667 546.133333 0 17.066667 0L765.149867 879.069867zM457.949867 315.8528c-9.437867 0-17.066667 7.6288-17.066667 17.066667l0 460.8c0 9.403733 7.6288 17.066667 17.066667 17.066667s17.066667-7.662933 17.066667-17.066667l0-460.8C475.016533 323.498667 467.387733 315.8528 457.949867 315.8528zM594.4832 315.8528c-9.437867 0-17.066667 7.6288-17.066667 17.066667l0 460.8c0 9.403733 7.6288 17.066667 17.066667 17.066667s17.066667-7.662933 17.066667-17.066667l0-460.8C611.549867 323.498667 603.921067 315.8528 594.4832 315.8528z" p-id="2111" fill="#515151"></path></svg>