<?xml version="1.0" standalone="no"?><!DOCTYPE svg PUBLIC "-//W3C//DTD SVG 1.1//EN" "http://www.w3.org/Graphics/SVG/1.1/DTD/svg11.dtd"><svg t="1572593645179" class="icon" viewBox="0 0 1024 1024" version="1.1" xmlns="http://www.w3.org/2000/svg" p-id="3458" xmlns:xlink="http://www.w3.org/1999/xlink" width="48" height="48"><defs><style type="text/css"></style></defs><path d="M838.6 484.7H578.5c-22.5 0-40.7-18.3-40.7-40.7V183.9c0-22.5 18.3-40.7 40.7-40.7h260.1c22.5 0 40.7 18.3 40.7 40.7V444c0 22.5-18.2 40.7-40.7 40.7zM578.5 170.8c-7.3 0-13.2 5.9-13.2 13.2v260c0 7.3 5.9 13.2 13.2 13.2h260.1c7.3 0 13.2-5.9 13.2-13.2V183.9c0-7.3-5.9-13.2-13.2-13.2H578.5zM838.6 880.4H578.5c-22.5 0-40.7-18.3-40.7-40.7V579.6c0-22.5 18.3-40.7 40.7-40.7h260.1c22.5 0 40.7 18.3 40.7 40.7v260.1c0 22.5-18.2 40.7-40.7 40.7zM578.5 566.5c-7.3 0-13.2 5.9-13.2 13.2v260.1c0 7.2 5.9 13.1 13.2 13.1h260.1c7.3 0 13.2-5.9 13.2-13.1V579.6c0-7.3-5.9-13.2-13.2-13.2H578.5zM444.1 484.7H184c-22.5 0-40.7-18.3-40.7-40.7V183.9c0-22.5 18.3-40.7 40.7-40.7h260.1c22.5 0 40.7 18.3 40.7 40.7V444c0 22.5-18.3 40.7-40.7 40.7zM184 170.8c-7.3 0-13.2 5.9-13.2 13.2v260c0 7.3 5.9 13.2 13.2 13.2h260.1c7.3 0 13.2-5.9 13.2-13.2V183.9c0-7.3-5.9-13.2-13.2-13.2H184zM444.1 880.4H184c-22.5 0-40.7-18.3-40.7-40.7V579.6c0-22.5 18.3-40.7 40.7-40.7h260.1c22.5 0 40.7 18.3 40.7 40.7v260.1c0 22.5-18.3 40.7-40.7 40.7zM184 566.5c-7.3 0-13.2 5.9-13.2 13.2v260.1c0 7.2 5.9 13.1 13.2 13.1h260.1c7.3 0 13.2-5.9 13.2-13.1V579.6c0-7.3-5.9-13.2-13.2-13.2H184z" fill="#515151" p-id="3459"></path></svg>