<?xml version="1.0" standalone="no"?><!DOCTYPE svg PUBLIC "-//W3C//DTD SVG 1.1//EN" "http://www.w3.org/Graphics/SVG/1.1/DTD/svg11.dtd"><svg t="1572346625495" class="icon" viewBox="0 0 1024 1024" version="1.1" xmlns="http://www.w3.org/2000/svg" p-id="25354" width="48" height="48" xmlns:xlink="http://www.w3.org/1999/xlink"><defs><style type="text/css"></style></defs><path d="M559.62985229 107.65390625a67.6265625 67.6265625 0 0 0-90.87203979 0L101.3046875 456.56546021a33.89765625 33.89765625 0 0 0 45.39375 50.35078125l5.84296875-5.54765625V865.53125a67.7953125 67.7953125 0 0 0 67.7953125 67.8796875h197.29000854v-204.10345459a47.73515625 47.73515625 0 0 1 47.75625-47.7984375h92.83392334a47.73515625 47.73515625 0 0 1 47.75625 47.7984375v204.10345459h201.97265625a67.7953125 67.7953125 0 0 0 67.81640625-67.8796875V505.81936646c15.0609375 13.6265625 36.42890625 12.59296875 48.95859375-1.37109375a33.89765625 33.89765625 0 0 0-2.446875-47.8828125L559.62985229 107.675Z" fill="#515151" p-id="25355"></path></svg>