<?xml version="1.0" standalone="no"?><!DOCTYPE svg PUBLIC "-//W3C//DTD SVG 1.1//EN" "http://www.w3.org/Graphics/SVG/1.1/DTD/svg11.dtd"><svg t="1572346640037" class="icon" viewBox="0 0 1024 1024" version="1.1" xmlns="http://www.w3.org/2000/svg" p-id="25625" width="48" height="48" xmlns:xlink="http://www.w3.org/1999/xlink"><defs><style type="text/css"></style></defs><path d="M566.1921875 51.944a76.944 76.944 0 0 0-103.3921875 0L44.72 448.9278125a38.568 38.568 0 0 0 51.648 57.288l6.648-6.312V914.24a77.136 77.136 0 0 0 77.136 77.232h224.4721875v-232.224375a54.312 54.312 0 0 1 54.336-54.384h105.624375a54.312 54.312 0 0 1 54.336 54.384v232.224375h229.8a77.136 77.136 0 0 0 77.16-77.232V504.9678125c17.136 15.504 41.448 14.328 55.704-1.56a38.568 38.568 0 0 0-2.784-54.48L566.1921875 51.968Z" fill="#d81e06" p-id="25626"></path></svg>